<svg xmlns="http://www.w3.org/2000/svg" viewBox="0 0 64 64" width="64" height="64">
  <rect width="64" height="64" rx="12" fill="#0d1117"/>
  <!-- Left page -->
  <path d="M10 14 C10 14 18 12 32 16 L32 52 C18 48 10 50 10 50 Z"
        fill="none" stroke="#58a6ff" stroke-width="2" stroke-linejoin="round"/>
  <!-- Right page -->
  <path d="M54 14 C54 14 46 12 32 16 L32 52 C46 48 54 50 54 50 Z"
        fill="none" stroke="#58a6ff" stroke-width="2" stroke-linejoin="round"/>
  <!-- Spine -->
  <line x1="32" y1="16" x2="32" y2="52" stroke="#58a6ff" stroke-width="2"/>
  <!-- Left lines (text suggestion) -->
  <line x1="15" y1="24" x2="28" y2="25.5" stroke="#58a6ff" stroke-width="1.2" stroke-linecap="round" opacity="0.6"/>
  <line x1="15" y1="30" x2="28" y2="31.5" stroke="#58a6ff" stroke-width="1.2" stroke-linecap="round" opacity="0.6"/>
  <line x1="15" y1="36" x2="28" y2="37.5" stroke="#58a6ff" stroke-width="1.2" stroke-linecap="round" opacity="0.6"/>
  <line x1="15" y1="42" x2="24" y2="43"   stroke="#58a6ff" stroke-width="1.2" stroke-linecap="round" opacity="0.6"/>
  <!-- Right lines -->
  <line x1="36" y1="25.5" x2="49" y2="24" stroke="#58a6ff" stroke-width="1.2" stroke-linecap="round" opacity="0.6"/>
  <line x1="36" y1="31.5" x2="49" y2="30" stroke="#58a6ff" stroke-width="1.2" stroke-linecap="round" opacity="0.6"/>
  <line x1="36" y1="37.5" x2="49" y2="36" stroke="#58a6ff" stroke-width="1.2" stroke-linecap="round" opacity="0.6"/>
  <line x1="36" y1="43"   x2="46" y2="42" stroke="#58a6ff" stroke-width="1.2" stroke-linecap="round" opacity="0.6"/>
  <!-- epub label -->
  <text x="32" y="61" font-family="monospace" font-size="7" fill="#58a6ff"
        text-anchor="middle" opacity="0.7">epubIt</text>
</svg>
